<?xml version="1.0" encoding="UTF-8" standalone="no"?>
<!DOCTYPE svg PUBLIC "-//W3C//DTD SVG 20010904//EN"
              "http://www.w3.org/TR/2001/REC-SVG-20010904/DTD/svg10.dtd">

<svg xmlns="http://www.w3.org/2000/svg"
     width="19.4444in" height="1.38889in"
     viewBox="0 0 1400 100">
  <path id="Selection"
        fill="black" stroke="black" stroke-width="1"
        d="M 452.00,47.00
           C 452.00,47.00 464.00,46.09 464.00,46.09
             464.00,46.09 484.00,44.83 484.00,44.83
             499.00,43.26 525.54,37.27 540.00,32.66
             540.00,32.66 571.00,22.00 571.00,22.00
             574.11,20.76 583.30,16.49 586.00,16.63
             589.03,16.77 592.47,19.66 595.00,21.31
             595.00,21.31 611.00,30.74 611.00,30.74
             627.66,39.34 649.11,46.94 668.00,47.00
             668.24,42.11 669.15,38.41 671.38,34.00
             685.39,6.24 730.38,13.95 732.00,47.00
             750.56,46.94 772.62,39.19 789.00,30.74
             789.00,30.74 805.00,21.12 805.00,21.12
             807.56,19.36 810.77,16.66 814.00,16.65
             816.52,16.65 825.15,20.46 828.00,21.60
             828.00,21.60 854.00,30.86 854.00,30.86
             878.93,38.20 900.00,43.35 926.00,45.96
             926.00,45.96 936.00,45.96 936.00,45.96
             936.00,45.96 948.00,47.00 948.00,47.00
             948.00,47.00 1400.00,47.00 1400.00,47.00
             1400.00,47.00 1400.00,54.00 1400.00,54.00
             1400.00,54.00 935.00,54.00 935.00,54.00
             913.83,54.03 872.65,63.06 852.00,69.51
             852.00,69.51 827.00,78.05 827.00,78.05
             824.08,79.14 816.62,82.45 814.00,82.53
             810.53,82.64 807.74,80.16 805.00,78.35
             805.00,78.35 789.00,68.76 789.00,68.76
             772.43,60.33 750.76,52.17 732.00,52.00
             730.55,62.31 726.76,70.29 718.00,76.38
             697.69,90.50 670.22,76.59 668.00,52.00
             649.53,52.40 628.31,59.84 612.00,68.26
             612.00,68.26 596.00,77.67 596.00,77.67
             593.17,79.54 589.50,82.47 586.00,82.45
             583.21,82.44 576.05,79.17 573.00,78.05
             573.00,78.05 546.00,69.02 546.00,69.02
             524.99,62.50 503.78,58.43 482.00,55.72
             475.07,54.85 472.36,54.01 465.00,54.00
             465.00,54.00 0.00,54.00 0.00,54.00
             0.00,54.00 0.00,47.00 0.00,47.00
             0.00,47.00 452.00,47.00 452.00,47.00 Z" />
</svg>
